<svg xmlns="http://www.w3.org/2000/svg" width="82" height="40" viewBox="0 0 82 40"><g stroke="#4b352d" stroke-width="2.5" stroke-linejoin="round" stroke-linecap="round"><defs><linearGradient id="silver" x1="0" y1="0" x2="1" y2="1"><stop stop-color="#51443d"/><stop offset=".38" stop-color="#877a70"/><stop offset=".75" stop-color="#403635"/><stop offset="1" stop-color="#7a7570"/></linearGradient></defs> <path d="M2 34 Q-2 21 10 14 Q6 3 26 7 Q31 -3 48 8 Q62 -3 69 10 Q86 4 79 29 L75 37 Q67 22 57 22 Q46 16 33 26 Q19 19 9 34Z" fill="url(#silver)"/> <path d="M5 27 Q14 12 30 18 Q35 7 50 16 Q62 5 73 22" stroke="#262c2e" stroke-width="5" fill="none"/> <path d="M9 21 Q22 11 33 16 Q39 6 49 12 M47 11 Q61 2 68 15 M53 21 Q68 14 77 27" stroke="#dbcfba" stroke-opacity=".9" stroke-width="3.1" fill="none" stroke-linecap="round"/> <path d="M13 31 Q24 19 37 23 M28 11 Q38 5 45 17 M60 16 Q71 12 75 22" stroke="#aca69c" stroke-width="2" fill="none"/> <path d="M2 34 Q11 31 15 35 M70 34 Q75 30 79 28" stroke="#353330" stroke-width="3" fill="none"/></g></svg>